<svg height="60" viewBox="0 0 60 60" width="60" xmlns="http://www.w3.org/2000/svg"><g id="Page-1" fill="none" fill-rule="evenodd"><g id="074---Pet-Shop-Marker" fill="rgb(0,0,0)" fill-rule="nonzero"><path id="Shape" d="m.45 58.28v.15c.20540964.9342904 1.04365601 1.5923138 2 1.57h55.13c.6516197-.0002772 1.2622506-.3179822 1.6364641-.8514356.3742136-.5334534.4650867-1.2157646.2435359-1.8285644l-3.54-9.93c-.0123446-.0416668-.0291065-.0818952-.05-.12l-5.69-15.94c-.282953-.7958378-1.03536-1.3281257-1.88-1.33h-4c1.776903-4.0511832 2.6961803-8.4262624 2.7-12.85 0-9.38884075-7.6111593-17-17-17s-17 7.61115925-17 17c.0141489 4.4247214.9400759 8.7990458 2.72 12.85h-4c-.8483087-.0023587-1.6058188.5307039-1.89 1.33l-7.31 20.45c-.00394399.0399028-.00394399.0800972 0 .12l-1.98 5.41c-.09530705.2829388-.12605915.583626-.09.88-.00503521.0297887-.00503521.0602113 0 .09zm5.55-10.2 2.28 1-3.14 1.33zm-1.8 4.92 7-3c.3687533-.1570883.6080816-.5191812.6080816-.92s-.2393283-.7629117-.6080816-.92l-4.53-2 .91-2.53 8.74 3.78c.2550505.1113131.5449495.1113131.8 0l8.56-3.7c.87.81 1.64 1.45 2.26 1.94l-2.76 1.19c-.3687533.1570883-.6080816.5191812-.6080816.92s.2393283.7629117.6080816.92l21.5 9.32h-6.76l-19.86-8.58c-.2550505-.1113131-.5449495-.1113131-.8 0l-16.26 7.04zm6.51-18.18 11 4.75c.82 1 1.64 1.88 2.42 2.67l-7.41 3.2-8.5-3.67zm29.14 2.8 9.06-3.91.9 2.53-4 1.71c-.3687533.1570883-.6080816.5191812-.6080816.92s.2393283.7629117.6080816.92l6.19 2.66 1.24 3.45-12.49-5.4c-.2521726-.1084252-.5378274-.1084252-.79 0l-4.08 1.75c1.4330596-1.4493074 2.7598281-2.9999891 3.97-4.64zm11.26 2.26-2.35-1 1.72-.74zm-16.23 18.12h-30.42l15.2-6.57zm16.85 0-23.65-10.21 1.85-.8h.07c.1994427.0004453.3944627-.0587572.56-.17l.39-.28 9.4-4 13.84 6 3.39 9.46zm-3.92-26-5.88 2.54c.51-.84 1-1.69 1.4-2.54zm-31.48-21.07c2.9127586-6.44831223 9.9355629-9.98426905 16.8503563-8.48409412 6.9147935 1.50017493 11.8409234 7.62847112 11.8196437 14.70409412 0 10.85-6.41 21.2-15 27.62-1.2027126-.9088857-2.3513336-1.8872171-3.44-2.93-6.91-6.59-11.56-15.14-11.56-24.69-.0064071-2.1445704.4471212-4.2655824 1.33-6.22zm.33 21.07c.7472948 1.500256 1.6028926 2.9440773 2.56 4.32l-7.84-3.4.33-.92z"/><path id="Shape" d="m32.2 17.62c-1.3934013-.7997449-3.1065987-.7997449-4.5 0-2.48 1.56-6.51 4.63-5.56 7.61 1.12 3.47 6.56 3.77 7.71 3.77h.2c1.15 0 6.6-.3 7.71-3.77.95-2.98-3.07-6.05-5.56-7.61zm3.65 7c-.61 1.91-4.52 2.38-5.91 2.38s-5.28-.46-5.89-2.38c-.37-1.17 1.52-3.3 4.72-5.3.3688746-.2270332.7972518-.3384809 1.23-.32.4188493-.007223.8312636.1036783 1.19.32 3.14 2 5.04 4.13 4.66 5.3z"/><path id="Shape" d="m26 15.83c.3234111.1045127.6602208.1617703 1 .17 1.1890114-.0219266 2.299192-.5992205 3-1.56.700808.9607795 1.8109886 1.5380734 3 1.56.3397792-.0082297.6765889-.0654873 1-.17.0184164 2.2300426 1.7726537 4.058835 4 4.17 2.3439228-.1448386 4.130965-2.1552611 4-4.5.130965-2.3447389-1.6560772-4.3551614-4-4.5-.3397792.0082297-.6765889.0654873-1 .17-.0184164-2.2300426-1.7726537-4.05883497-4-4.17-1.1890114.02192662-2.299192.59922053-3 1.56-.700808-.96077947-1.8109886-1.53807338-3-1.56-2.2273463.11116503-3.9815836 1.9399574-4 4.17-.3234111-.1045127-.6602208-.1617703-1-.17-2.3439228.1448386-4.130965 2.1552611-4 4.5-.130965 2.3447389 1.6560772 4.3551614 4 4.5 2.2273463-.111165 3.9815836-1.9399574 4-4.17zm14-.33c.1179166 1.2367154-.7675642 2.3435665-2 2.5-1.2324358-.1564335-2.1179166-1.2632846-2-2.5-.1179166-1.2367154.7675642-2.3435665 2-2.5 1.2324358.1564335 2.1179166 1.2632846 2 2.5zm-7-6.5c1.2324358.15643353 2.1179166 1.2632846 2 2.5.1179166 1.2367154-.7675642 2.3435665-2 2.5-1.2324358-.1564335-2.1179166-1.2632846-2-2.5-.1179166-1.2367154.7675642-2.34356647 2-2.5zm-6 0c1.2324358.15643353 2.1179166 1.2632846 2 2.5.1179166 1.2367154-.7675642 2.3435665-2 2.5-1.2324358-.1564335-2.1179166-1.2632846-2-2.5-.1179166-1.2367154.7675642-2.34356647 2-2.5zm-7 6.5c-.1179166-1.2367154.7675642-2.3435665 2-2.5 1.2324358.1564335 2.1179166 1.2632846 2 2.5.1179166 1.2367154-.7675642 2.3435665-2 2.5-1.2324358-.1564335-2.1179166-1.2632846-2-2.5z"/></g></g></svg>