<svg id="Capa_1" enable-background="new 0 0 512 512" height="512" viewBox="0 0 512 512" width="512" xmlns="http://www.w3.org/2000/svg"><path d="m272.587 367.02c-3-1.26-8.049-1.83-16.388-1.83-8.329 0-13.378.57-16.388 1.83-1.78.74-2.58 1.52-2.58 4.1 0 3.02 2.88 7.99 6.999 12.1 4.109 4.1 9.029 6.96 11.969 6.96 2.95 0 7.869-2.86 11.979-6.96 4.12-4.11 6.989-9.08 6.989-12.1-.001-2.58-.791-3.36-2.58-4.1z"/><path d="m390.433 273.2c-9.699-29.11-21.527-59.23-42.145-82.29-23.247-25.99-53.364-38.63-92.089-38.63-38.715 0-68.842 12.64-92.089 38.63-20.608 23.05-32.436 53.17-42.145 82.29-3.51 10.53-6.919 19.58-10.209 28.34-10.059 26.71-18.738 49.78-18.738 86.32 0 25.97 6.059 48.54 18.018 67.06 10.619 16.45 25.767 29.55 45.015 38.94 27.917 13.62 59.793 17.28 85.15 18.14v-94.99c-8.049-3.39-14.378-8.78-18.148-12.55-5.909-5.89-15.818-18.05-15.818-33.34 0-14.38 7.839-26.25 20.968-31.77 7.039-2.95 15.148-4.16 27.997-4.16 12.848 0 20.967 1.21 28.007 4.16 13.128 5.52 20.958 17.39 20.958 31.77 0 15.29-9.899 27.45-15.808 33.34-3.77 3.77-10.109 9.16-18.158 12.55v94.99c25.367-.86 57.243-4.52 85.15-18.14 19.258-9.39 34.406-22.49 45.025-38.94 11.949-18.52 18.018-41.08 18.018-67.06 0-36.54-8.689-59.61-18.758-86.37-3.292-8.76-6.702-17.81-10.201-28.29zm-169.51 20.16c0 8.28-6.709 15-14.998 15-8.279 0-14.998-6.72-14.998-15v-22.57c0-8.29 6.719-15 14.998-15 8.289 0 14.998 6.71 14.998 15zm100.148 0c0 8.28-6.709 15-14.998 15-8.279 0-14.998-6.72-14.998-15v-22.57c0-8.29 6.719-15 14.998-15 8.289 0 14.998 6.71 14.998 15z"/><path d="m229.451 101.369c7.375 7.361 17.063 11.042 26.751 11.042s19.376-3.681 26.751-11.042l36.952-36.882c7.151-7.137 11.089-16.627 11.089-26.722s-3.938-19.585-11.089-26.722c-14.75-14.723-38.751-14.723-53.502 0l-10.201 10.182-10.201-10.182c-14.75-14.723-38.752-14.723-53.502 0-7.151 7.137-11.089 16.627-11.089 26.722s3.938 19.585 11.089 26.722z"/><path d="m141.752 170.91c1.62-1.81 3.28-3.58 4.959-5.29-.02 0-.04-.01-.06-.01-12.639-2.83-38.186-3.75-67.302 22-11.929 10.54-29.547 30.56-42.015 51.53-18.718 31.44-22.297 57.93-10.639 78.73 10.739 19.17 26.257 27.35 39.605 30.85 3.81-21.7 10.469-39.4 17.388-57.75l.22-.61c3.12-8.31 6.349-16.9 9.599-26.65 10.729-32.17 23.998-65.68 48.245-92.8z"/><path d="m474.673 237.6c-12.479-20.96-30.096-40.99-42.015-51.53-29.116-25.74-54.663-24.83-67.312-22-.33.07-.66.15-.98.23 2.14 2.12 4.229 4.33 6.279 6.61 24.267 27.14 37.536 60.65 48.244 92.81 3.23 9.66 6.449 18.24 9.569 26.54l.26.68.01.03c6.739 17.92 13.248 35.21 17.098 56.19 13.318-3.52 28.777-11.72 39.485-30.83 11.649-20.8 8.069-47.28-10.638-78.73z"/></svg>